<svg width="104" height="103" viewBox="0 0 104 103" fill="none" xmlns="http://www.w3.org/2000/svg">
<path d="M53.1974 7.165C52.4288 6.857 51.5712 6.857 50.8026 7.165L12.3836 22.5313L27.8594 28.7178L67.4758 12.8751L53.1974 7.165ZM76.1406 16.3449L36.5243 32.1876L52 38.374L91.6164 22.5313L76.1406 16.3449ZM97.0625 27.2886L55.2188 44.0261V95.024L97.0625 78.2865V27.2951V27.2886ZM48.7812 95.0304V44.0197L6.9375 27.2886V78.2929L48.7812 95.0304ZM48.4143 1.18457C50.7161 0.263999 53.2839 0.263999 55.5857 1.18457L101.479 19.5443C102.075 19.7834 102.587 20.1957 102.947 20.7281C103.307 21.2605 103.5 21.8885 103.5 22.5313V78.2929C103.499 79.5793 103.113 80.8359 102.391 81.9007C101.67 82.9655 100.645 83.7897 99.4508 84.2669L53.1974 102.768C52.4288 103.076 51.5712 103.076 50.8026 102.768L4.55562 84.2669C3.35987 83.7907 2.33432 82.967 1.61138 81.9021C0.88845 80.8372 0.501328 79.58 0.5 78.2929L0.5 22.5313C0.50015 21.8885 0.692763 21.2605 1.05303 20.7281C1.41329 20.1957 1.9247 19.7834 2.52138 19.5443L48.4143 1.18457Z" fill="#1A6B70"/>
</svg>
