<svg width="31" height="29" viewBox="0 0 31 29" fill="none" xmlns="http://www.w3.org/2000/svg">
<path fill-rule="evenodd" clip-rule="evenodd" d="M12.3058 0.00891113C9.3827 0.00891113 7.01306 2.37855 7.01306 5.30165V6.8547H2.07646C0.934922 6.8547 0.00952148 7.7801 0.00952148 8.92164V21.6392C0.00952148 25.1562 2.86058 28.0072 6.37753 28.0072H23.6398C27.1568 28.0072 30.0078 25.1562 30.0078 21.6392V8.92164C30.0078 7.7801 29.0824 6.8547 27.9409 6.8547H23.0039V5.30165C23.0039 2.37855 20.6342 0.00891113 17.7111 0.00891113H12.3058ZM21.0206 8.83804V10.5852C21.0206 11.1329 21.4645 11.5768 22.0122 11.5768C22.5599 11.5768 23.0039 11.1329 23.0039 10.5852V8.83804H27.9409C27.9871 8.83804 28.0245 8.87547 28.0245 8.92164V21.6392C28.0245 24.0608 26.0614 26.0239 23.6398 26.0239H6.37753C3.95594 26.0239 1.99285 24.0608 1.99285 21.6392V8.92164C1.99285 8.87547 2.03028 8.83804 2.07646 8.83804H7.01306V10.5852C7.01306 11.1329 7.45705 11.5768 8.00473 11.5768C8.55241 11.5768 8.9964 11.1329 8.9964 10.5852V8.83804H21.0206ZM21.0206 6.8547V5.30165C21.0206 3.47392 19.5389 1.99224 17.7111 1.99224H12.3058C10.4781 1.99224 8.9964 3.47392 8.9964 5.30165V6.8547H21.0206Z" fill="#1A6B70"/>
</svg>
