<svg xmlns="http://www.w3.org/2000/svg" viewBox="0 0 511.99 323.57"><g id="Слой_2" data-name="Слой 2"><g id="Слой_1-2" data-name="Слой 1"><path d="M44.39,1.33c-4.1,1.9-8.3,6.6-9.5,10.7-1.5,5.2-1.3,150.4.2,153.2,2.7,5.2,8.3,6.2,12.3,2.2l2.5-2.4V15.93h309v73.6c0,54,.3,74.1,1.2,75.7,2.7,5.2,8.3,6.2,12.3,2.2,2.1-2,2.5-3.4,2.5-8.5v-6h49.3c29.9,0,50.6.4,52.8,1,5.1,1.4,9.8,4.8,13.6,9.8,5.4,7.1,5.2,7.2-10.2,7.2-13.1,0-13.7.1-16,2.5s-2.5,3-2.5,14.6c0,15.4,1.1,19,7.5,25.4,5.8,5.9,10.2,7.5,19.9,7.5h6.6v36h-20.6l-3.1-6.3c-18.5-37.3-72.2-37.2-90.6.1-2.1,4.1-3.7,6.2-4.7,6-1.3-.3-1.6-4.8-2-32.5-.5-35.4-.4-34.6-6.7-35.9-2.7-.5-3.7-.1-6.3,2.4l-3,3v63.2H193l-2.1-4.7c-8.8-20-31.2-32.4-53.2-29.3-15.8,2.2-31.7,13.7-38.3,27.8l-3,6.2-23-.2-23-.3v-18l19.2-.3,19.2-.2,2-2.7c2.8-3.4,2.6-6.6-.3-10l-2.4-2.8H4.69l-2.4,2.8c-2.9,3.4-3.1,6.6-.3,10.1l2,2.6h29.9v10.2c0,7.8.5,11.3,1.9,14.3,4.3,9.4,7.8,10.4,35.6,10.5h22l1.3,7.7c6.7,42.2,59,57.8,87.6,26.2,5.7-6.3,11.4-17.8,12.2-24.6.3-2.6.7-5.8,1-7.1l.4-2.2h179.6l1.5,8.2c2.1,10.8,5.8,18.5,12.5,25.8,11,11.8,21.3,16.3,37.4,16.3s26.4-4.5,37.4-16.3c6.8-7.5,10.4-14.6,12.4-25.4l1.6-8.5,14.4-.3,14.4-.3,2.4-2.9,2.5-2.8-.3-48.7c-.3-47.3-.4-48.7-2.5-53.9-4.9-12-16.2-22.5-27.4-25.3-3.4-.9-5.4-2-6-3.4-.5-1.1-3.6-12.9-6.9-26.3l-6-24.3,3.1-2.6,3.1-2.7-.4-10.5c-.3-9.1-.8-11.3-3.1-15.9-3.3-6.2-9.1-12.4-14.4-15-7.1-3.6-13.5-4.2-45.3-4.2h-30.8l-.4-11.8c-.3-10.5-.6-12.1-2.7-15.1a18.71,18.71,0,0,0-6.5-5.2c-3.9-1.8-10.1-1.9-161.1-1.8C75.39,0,46.89.23,44.39,1.33Zm399.2,50.8c4.3,2.4,8.3,7.8,9,12.2l.6,3.6h-78.3V49.83l32.8.3C436.59,50.43,440.79,50.63,443.59,52.13Zm9.1,58c3.4,13.9,6.2,25.6,6.2,26s-18.9.8-42,.8h-42v-52h71.5Zm43.2,85.8v9h-6.4c-5.5,0-6.7-.3-9-2.6s-2.6-3.5-2.6-9v-6.4h18Zm-343.5,43.5c8.7,1.4,18.8,9.4,23.4,18.3,4.5,8.7,4.5,21.6,0,30.3-13.2,26.1-49.3,26.1-62.1.1-3-6-3.3-7.5-3.3-15.2.1-7.2.5-9.4,2.8-14.2,4.9-10.1,15.1-18,25.6-19.8C143.39,238.13,144.79,238.23,152.39,239.43Zm280-.4a35.43,35.43,0,0,1,29,30.4c1.3,10.4-4.3,24-12.5,30.5-20.2,16-49.2,6.1-55.6-18.9-4.8-18.9,8.3-38.7,27.8-42,2.9-.5,5.3-.9,5.4-1S429.19,238.43,432.39,239Z"/><path d="M136.09,258.83c-12.2,7.7-9.5,25.9,4.6,30.2,8,2.4,18.3-3.7,19.8-11.7,2.1-11.5-3.9-19.5-15.1-20.2C140.69,256.93,138.69,257.23,136.09,258.83Z"/><path d="M419,258.63c-9.9,4.9-11.3,20.3-2.5,27.2a16.11,16.11,0,0,0,22-1.3,16.4,16.4,0,0,0,1.5-21.4C435.89,257.23,426.09,255.13,419,258.63Z"/><path d="M19.79,190.83c-3.6,3.6-3.7,7.3-.4,10.6l2.4,2.5h54c29.7,0,54.7-.3,55.6-.6,1.8-.7,4.5-5.5,4.5-7.9,0-.9-1.3-3-2.9-4.6l-2.9-2.9H22.69Z"/><path d="M210.19,222.93a8.2,8.2,0,0,0-4.8,9c1.4,6.2-1.3,6,68.1,6h63.3l2-2.6c2.8-3.5,2.6-6.7-.3-10.1l-2.4-2.8-61.9-.2C239.69,222.13,211.39,222.43,210.19,222.93Z"/></g></g></svg>