<svg xmlns="http://www.w3.org/2000/svg" xmlns:xlink="http://www.w3.org/1999/xlink" viewBox="0 0 196.2 192.27"><defs><style>.cls-1{fill:#fff;}.cls-2{fill:url(#Безымянный_градиент);}.cls-3{isolation:isolate;font-size:9.75px;font-family:MontserratAlternates-Regular, Montserrat Alternates;letter-spacing:-0.01em;}.cls-4{letter-spacing:0em;}.cls-5{fill:#3c4a6c;}</style><linearGradient id="Безымянный_градиент" x1="44.03" y1="-851.39" x2="165.47" y2="-746.54" gradientTransform="matrix(1, 0, 0, -1, 0, -693.55)" gradientUnits="userSpaceOnUse"><stop offset="0" stop-color="#86bfd1"/><stop offset="1" stop-color="#29ddd2" stop-opacity="0"/></linearGradient></defs><g id="Слой_2" data-name="Слой 2"><g id="Слой_1-2" data-name="Слой 1"><ellipse class="cls-1" cx="98.1" cy="96.14" rx="98.1" ry="96.14"/><g id="Слой_2-2" data-name="Слой 2"><path class="cls-2" d="M111.82,53.61c5.76.78,7.22,1,11.51,2.54a40.13,40.13,0,0,1,14,8.1,36.69,36.69,0,0,1,8.2,9.55,38.15,38.15,0,0,1,4.29,7.81,11.67,11.67,0,0,1,1.07,4.68A3.66,3.66,0,0,1,146,89.7c-3-1-6.73-3.61-8.09-4.48a9.26,9.26,0,0,0-2.64-1.17L139.92,91,145,99.26c1.95,3.81,5.85,11.71,5.85,12.49a12.35,12.35,0,0,1,.59,4.48,6.47,6.47,0,0,1-1.37,3.81,3.93,3.93,0,0,1-2.54,1.56,3.69,3.69,0,0,1-3-.49,28.29,28.29,0,0,1-5.27-3.61s-5.17-4.19-8.48-6.92c-1.08-.88-1.66-1.47-2.73-2.34a3.24,3.24,0,0,0-1.56-.69l4.58,8.68a114.33,114.33,0,0,1,5.36,12.1,32.67,32.67,0,0,1,1.27,4.49,14.62,14.62,0,0,1,.49,2.82,20.65,20.65,0,0,1,.19,3.42c0,.88,0,.19-.09,2.24s-1.86,5.46-8.2,3.12a11.51,11.51,0,0,1-1.36-.88,46.73,46.73,0,0,1-4.29-3.6c-2.54-2.25-3.9-3.61-6.44-6.05-2.73-2.54-4.2-4-6.83-6.54-2.24-2.14-3-3.22-5.07-5a5.12,5.12,0,0,0-2-1.07s2,3.7,3.12,6.14a58,58,0,0,1,3.61,8.88c.68,2.24,1.46,5.75,1.46,5.75.49,3-.39,9.07-6.92,6.63a2.24,2.24,0,0,1-1-.48c-3.31-2.15-4.48-3.71-7.6-6.44-3.32-2.83-5.08-4.68-8.59-7.32S82.56,130,78.47,128A17.64,17.64,0,0,0,75,126.48c-.58-.1-1.75.09-1.56,1.75A5.92,5.92,0,0,0,75,131.74c.78,1,1,1.27,2,2.64,1.66,2,2.73,3,4.39,4.87s3.22,3.22,4,4.59-1,3.8-4.29,1.46a58,58,0,0,1-4.59-3.61,48,48,0,0,1-5.16-4.78,51.36,51.36,0,0,1-4.2-5.07h0a37.71,37.71,0,0,1-3.32-5.27,19.35,19.35,0,0,1-1.26-2.92,6.26,6.26,0,0,1-.49-2.15c-.2-1,.49-5.85,4.39-5.85s5.75.39,6.14.58,3.9,1.37,6.25,2.44a47.49,47.49,0,0,1,6.92,3.71A48.72,48.72,0,0,1,92.22,127c1.17.88,3,2.44,3,2.44A49.54,49.54,0,0,0,91,120.92a33.2,33.2,0,0,0-2.73-3.81,35.28,35.28,0,0,0-3.12-3.41,52.49,52.49,0,0,0-4.2-4l-.09-.1a62.81,62.81,0,0,0-4.88-4.1,37.81,37.81,0,0,0-5-3.41c-2-1.17-4.88-2.83-7.91-4.68-1.36-.88-1.26-.88-3-2.15s-1.36-5.56,5.66-3.51A84,84,0,0,1,75,94.87c2.35.88,3.61,1.37,6,2.44,2.83,1.27,4.39,2,7.22,3.42,3.12,1.56,4.78,2.43,7.81,4.19a85.58,85.58,0,0,1,8.09,5.17,112,112,0,0,1,9.56,7.31c1.76,1.57,4.49,4.1,4.49,4.1l2.83,2.44a10.57,10.57,0,0,0-.49-1.85,61,61,0,0,0-4.88-8.49c-1.56-2.44-2.34-3.71-4.1-6a72.26,72.26,0,0,0-6-7.21,79,79,0,0,0-7.9-7.22,90.56,90.56,0,0,0-8.78-6.25,78.7,78.7,0,0,0-8.68-5A88.66,88.66,0,0,0,69.2,77.32a8.71,8.71,0,0,1-2.34-1.17,2.54,2.54,0,0,1,.19-4.59,18.5,18.5,0,0,1,6.93.49c2.34.58,3.71.88,5.85,1.46a71.59,71.59,0,0,1,7.22,2.25l8.29,2.92a70.87,70.87,0,0,1,9,4.1,113.07,113.07,0,0,1,10.83,5.85,112.17,112.17,0,0,1,10.73,7.22c3.12,2.44,4.88,3.8,8.1,6.24-.39-.88-1.37-2.54-2.25-4.19A66.24,66.24,0,0,0,127,91c-.88-1.17-1.37-1.75-2.24-2.83A58.36,58.36,0,0,0,120.31,83a52,52,0,0,0-5.56-4.87,61.92,61.92,0,0,0-7.41-5,61,61,0,0,0-6.93-3.9,80.3,80.3,0,0,0-10-3.8c-1.95-.78-2.83-.88-5.07-1.86a2,2,0,0,1-1.17-1.46,2.1,2.1,0,0,1,.29-1.85,2.43,2.43,0,0,1,2-1.08c1.85-.19,2.83.3,4.68.59a68.26,68.26,0,0,1,8.88,1.85,107.48,107.48,0,0,1,11.22,3.51c4.58,1.66,7,2.73,11.41,4.69,4.68,2.14,11.7,6,11.7,6l1.08.49s-.88-1.56-1.56-2.63a37.87,37.87,0,0,0-3.81-4.78,31.64,31.64,0,0,0-6.63-5.46,33.67,33.67,0,0,0-7.32-3.61c-2-.88-3.41-1-5.46-2a2.12,2.12,0,0,1-1.17-1.37,2.22,2.22,0,0,1,.29-1.76C110.65,53.61,111.24,53.52,111.82,53.61Z"/><text class="cls-3" transform="translate(128.65 136.34)">c<tspan class="cls-4" x="5.4" y="0">ompany</tspan></text><path class="cls-5" d="M69.52,114.28a.8.8,0,0,1,.78.39q.28.3,0,1.17a78,78,0,0,1-7.8,18.63,3.12,3.12,0,0,1-1.86,1.66c-2,.68-3.61-.29-5-3a30.94,30.94,0,0,1-2.73-18.73,74.22,74.22,0,0,1,2.92-10.73c.59-1.66,1.66-4.39,3.22-8.29s2.73-6.63,3.22-8.1c.1-.09,0-.19-.1-.29a.18.18,0,0,0-.29,0,59.49,59.49,0,0,0-9.07,11.41A41,41,0,0,0,47.18,111a51.42,51.42,0,0,0-.78,8.29,1.22,1.22,0,0,1-.68,1.07,2,2,0,0,1-1.66.49A2.37,2.37,0,0,1,41.91,119a10.24,10.24,0,0,1-.39-3.91c.2-1.65.49-3.31.78-5s.49-3.12.69-4.49a32.13,32.13,0,0,1,1-4.39c.39-1.66.69-2.92,1-3.8s.58-2.24,1.07-3.9.88-2.83,1.07-3.42.59-1.85,1.17-3.61,1-2.82,1.17-3.21.59-1.56,1.27-3.52,1.08-3.12,1.17-3.31C48.25,79,44.16,84,39.77,91.17a149.35,149.35,0,0,0-12.39,25.94c-.29,2-.88,3.12-1.66,3.71s-1.56.68-2.24.19A6.92,6.92,0,0,1,21,118.67a5.75,5.75,0,0,1-.88-3c.3-2.83,2.25-9.37,5.95-19.51S32,78.88,32.65,74.78a11,11,0,0,0-.1-4.78,6.91,6.91,0,0,0-2.93-4.19,8.14,8.14,0,0,0-4.68-1.37,7.36,7.36,0,0,0-4.68,2.15,9.94,9.94,0,0,0-2.93,5.46,14.13,14.13,0,0,0,.78,4.78,11.84,11.84,0,0,0,2.25,5,1.46,1.46,0,0,0,1.56.39,3,3,0,0,0,1.46-1,4.37,4.37,0,0,0,.49-1.37,8.66,8.66,0,0,0,.1-1.56,6.42,6.42,0,0,1,.09-1.36,1.37,1.37,0,0,1,.49-1c.2-.19.59-.19,1.08,0A3.72,3.72,0,0,1,28,78,9.37,9.37,0,0,1,29,81.41,10,10,0,0,1,26.11,89c-1.46,1.56-2.92,2.24-4.29,2-1.56-.29-2.93-1.85-4.19-4.68-2.73-6-3.9-10.93-3.81-14.92a15.62,15.62,0,0,1,2.44-7.51,9.34,9.34,0,0,1,5.56-4.2,12.41,12.41,0,0,1,8.68,1.56A14.7,14.7,0,0,1,34,63.86a18.19,18.19,0,0,1,2.64,3.41,29,29,0,0,1,2.14,4.58c.88,1.66,1.08,3.91.78,6.64s-1.46,6.73-3.41,11.8c-.2.49-.68,1.75-1.46,3.9s-1.47,3.71-2,4.88c1.85-3.9,3.41-7.12,4.58-9.66s2.83-5.27,4.68-8.29A40.54,40.54,0,0,1,47.38,74a22.22,22.22,0,0,1,2.83-2.54,2.61,2.61,0,0,1,2.24-.39A5.38,5.38,0,0,1,55,73a8.29,8.29,0,0,1,1.76,3.81,7.08,7.08,0,0,1-.68,3.9A30.18,30.18,0,0,1,54,84.63c-.78,1.27-1.66,2.93-2.73,4.88a33.86,33.86,0,0,0-2.44,5.95c.88-1.17,1.85-2.25,2.83-3.42s2.24-2.43,3.61-4,2.44-2.64,3-3.32c2.24-2.54,4.29-3.51,6.15-2.93A4.14,4.14,0,0,1,67,84.24c.68,1.46.59,3.71-.39,6.63-.39,1.17-.88,2.73-1.46,4.49s-1.17,3.51-1.66,5.07a39.2,39.2,0,0,0-1.85,5.17c-.59,2-1.08,3.81-1.47,5.56s-.68,3.51-1,5.37a33,33,0,0,0-.39,5.26,17.67,17.67,0,0,0,.58,4.69c.39,1.26.69,2,1.08,2,.68.09,1.75-1.27,3.12-4.1.1-.1.1-.1.1-.2,3.12-6.24,4.77-9.46,5-9.55A1.19,1.19,0,0,1,69.52,114.28Z"/><path class="cls-5" d="M88.83,102.29l-1,1.75c-.1.1-.1.1-.1.2s-.1.09-.1.09a20.35,20.35,0,0,1-1.66,9c-1.46,3.7-3.51,6.34-6.24,7.8a8.8,8.8,0,0,1-5.07,1.07,7.76,7.76,0,0,1-4.78-1.85,7.67,7.67,0,0,1-2.34-4.78,14.61,14.61,0,0,1,.48-5.85,24.09,24.09,0,0,1,5.37-9.36l.49-.49A8.92,8.92,0,0,1,74,96.24a6.69,6.69,0,0,1,2.54-3.9,4.9,4.9,0,0,1,4.59-.88c1.65.39,3,1.66,4.19,3.8a18.67,18.67,0,0,1,2.34,8.1A6,6,0,0,0,88.83,102.29ZM74.69,120.14c2.73.87,5.26-.39,7.7-3.81,1.86-2.53,2.93-6,3.12-10.34a6.14,6.14,0,0,1-4.09.88,9.49,9.49,0,0,1-4.49-1.66,5.81,5.81,0,0,0-2.83,2.54,15.1,15.1,0,0,0-1.66,3.7,12.54,12.54,0,0,0-.58,4.49C72.15,118.28,73,119.65,74.69,120.14Zm3.8-24.58a3.84,3.84,0,0,0-1.36,2.14,3.78,3.78,0,0,0,.58,2.83A7,7,0,0,0,80,102.77,12.13,12.13,0,0,0,85.12,104h.39a21.28,21.28,0,0,0-.68-4.78,7.35,7.35,0,0,0-2-3.22C81.32,94.68,79.86,94.48,78.49,95.56Z"/><path class="cls-5" d="M122.68,80.63c.68.1,1.17.2,1.36.2h-1.36a88.82,88.82,0,0,1-8.29,18.92,71.42,71.42,0,0,1-5.47,8.78c-4.09,5.75-7.21,9.85-9.36,12.39a9.33,9.33,0,0,1-5.46,3,3.55,3.55,0,0,1-2.73-.1,5.58,5.58,0,0,1-1.66-2,8.21,8.21,0,0,1-1.17-5.75,9.64,9.64,0,0,1,1.66-4.2,30,30,0,0,0,2.63-5.75,27.58,27.58,0,0,0,1.76-6,44,44,0,0,0-.3-8.19,21.59,21.59,0,0,0-4.58-10.64,18.18,18.18,0,0,1-1.85-2.24c-.3-.49-.79-1.27-1.37-2.24a3.49,3.49,0,0,1-.68-2.25c.09-.58.19-1.36.29-2.53.88-2.44,1.66-3.81,2.24-3.9a2.41,2.41,0,0,1,2.34.87,29.3,29.3,0,0,1,6.73,7.91,29.43,29.43,0,0,1,3.71,8,55.57,55.57,0,0,1,1.46,13.76,73.12,73.12,0,0,1-2,12.68,59.67,59.67,0,0,0,10.44-14,72.07,72.07,0,0,0,6.83-17.07,19,19,0,0,1-4.59-1.56c-4.09-2.83-5.75-6.14-5.07-10a7.93,7.93,0,0,1,4.2-6c2.92-1.56,5.55-1.56,8,0A10.2,10.2,0,0,1,123.65,66a6.22,6.22,0,0,1,1.17,3.9A48.18,48.18,0,0,1,122.68,80.63Zm-7.42-3.51a11,11,0,0,0,3.22,2.24,53.09,53.09,0,0,0,1.66-10.82c0-1.27-.29-2.05-1-2.34-1-.49-2-.2-3.22.87a7.58,7.58,0,0,0-2.44,5.08A6,6,0,0,0,115.26,77.12Z"/><path class="cls-5" d="M132,111a.52.52,0,0,1,.39-.2.5.5,0,0,1,.39.2c.1.09.1.29,0,.58a38.2,38.2,0,0,1-4.68,7.61c-2,2.83-3.41,4.49-4,4.78a7.43,7.43,0,0,1-3.12.58,4.15,4.15,0,0,1-2.73-.68c-1.08-1-1.86-3.12-2.25-6.24a41,41,0,0,1,.59-11.61,39.52,39.52,0,0,1,4.49-12.87,1.58,1.58,0,0,1,2.43-.59,6.52,6.52,0,0,0,1.08.59,8.43,8.43,0,0,1,.78.48,2.16,2.16,0,0,1,.68.59l.59.59c.19.19.39.39.39.58v.49a33.24,33.24,0,0,0-3.32,8.58,63.16,63.16,0,0,0-2.15,10.63c-.29,3.22.1,5.47,1.17,6.54.39.29,1.56-.78,3.61-3.22S130.19,113.41,132,111Zm-4.39-19.8a4.6,4.6,0,0,1-4-2,1.5,1.5,0,0,1-.19-1.66,1.4,1.4,0,0,1,1.46-.78,3.9,3.9,0,0,1,2.24.49,4.47,4.47,0,0,1,1.76,1.46,1.5,1.5,0,0,1,.19,1.66A1.61,1.61,0,0,1,127.65,91.17Z"/><path class="cls-5" d="M160.33,109.5c.29-.09-.3,1.17-1.66,3.81a59.21,59.21,0,0,1-5.17,8.09c-2.05,2.73-3.71,4.39-5.07,4.69a6.89,6.89,0,0,1-1.86.19c-2-.39-3.31-2.24-3.8-5.66a139,139,0,0,1-.59-19.7,7.86,7.86,0,0,0-.58-3.51A2.54,2.54,0,0,0,139.26,96c-.78,3.6-1.46,7.31-2.15,11.12s-1.17,6.73-1.46,8.68l-.39,3a3,3,0,0,1-1.17,1.66,1.77,1.77,0,0,1-2,0,4.3,4.3,0,0,1-1.46-2.64,46.16,46.16,0,0,1,.87-7.51c.69-4.29,1.76-9.26,3.12-15.11s2.93-11.42,4.69-17a64.5,64.5,0,0,1,5.85-13.65c2.14-3.51,4.29-5.07,6.34-4.39a4.22,4.22,0,0,1,3.22,3.12,9.77,9.77,0,0,1-.3,5.27,39.06,39.06,0,0,1-2.24,5.65,27.06,27.06,0,0,1-2.63,4.59l-1.27,1.85c-.39.88-3.22,4.88-8.39,11.8-.19.78-.29,1.47-.49,2.15.1-.19.2-.29.2-.39a15.23,15.23,0,0,1,1.27-1.46c.48-.49,1.07-1,1.56-1.47s1.07-.87,1.56-1.36,1-.88,1.66-1.37l1.56-1.27c2.05-2,3.8-2.53,5.17-2a4.74,4.74,0,0,1,2.24,2.74,9,9,0,0,1,.88,5.16,12.52,12.52,0,0,1-1.17,3.32c-.78,1.46-1.37,2.24-1.95,2.24a2.59,2.59,0,0,1-1.37-1.26A10.2,10.2,0,0,1,150,95.46a.59.59,0,0,1,.1-.59,3,3,0,0,1,.58-.48,1.81,1.81,0,0,0,.68-.59,2,2,0,0,0,.59-1,4.37,4.37,0,0,0-.29-4.38c-.49-.69-1-.79-1.56-.39-.39.29-1.27,1-2.64,2s-2.34,1.75-2.92,2.24a38.67,38.67,0,0,1-3.22,2.15,4.09,4.09,0,0,1,2.63.68,7.78,7.78,0,0,1,2.34,3.9q.43,1.75.29,10.83c-.09,6.53.59,10.14,2.15,10.82,1,.39,2.34-.09,3.9-1.26a24.33,24.33,0,0,0,4.2-5.56A32.52,32.52,0,0,1,160.33,109.5Zm-8.78-45.35c-4.2,4.29-7.9,13.46-11.32,27.5,9.66-14.72,14-23.7,13.07-26.92a1.47,1.47,0,0,0-.68-1A1.07,1.07,0,0,0,151.55,64.15Z"/><path class="cls-5" d="M186.86,109.5c.29-.09-.29,1.17-1.66,3.81A59.21,59.21,0,0,1,180,121.4c-2.05,2.73-3.71,4.39-5.07,4.69a6.85,6.85,0,0,1-1.86.19c-2-.39-3.31-2.24-3.8-5.66a139.34,139.34,0,0,1-.58-19.7,7.84,7.84,0,0,0-.59-3.51A2.54,2.54,0,0,0,165.79,96c-.78,3.6-1.46,7.31-2.15,11.12s-1.17,6.73-1.46,8.68l-.39,3a2.92,2.92,0,0,1-1.17,1.66,1.77,1.77,0,0,1-2,0,4.3,4.3,0,0,1-1.46-2.64,46.16,46.16,0,0,1,.87-7.51c.69-4.29,1.76-9.26,3.12-15.11s2.93-11.42,4.69-17a64.5,64.5,0,0,1,5.85-13.65c2.14-3.51,4.29-5.07,6.34-4.39a4.22,4.22,0,0,1,3.22,3.12,9.86,9.86,0,0,1-.29,5.27,40.29,40.29,0,0,1-2.25,5.65,27.06,27.06,0,0,1-2.63,4.59l-1.27,1.85c-.39.88-3.22,4.88-8.39,11.8-.19.78-.29,1.47-.49,2.15.1-.19.2-.29.2-.39a15.23,15.23,0,0,1,1.27-1.46c.49-.49,1.07-1,1.56-1.47s1.07-.87,1.56-1.36,1-.88,1.66-1.37l1.56-1.27c2.05-2,3.8-2.53,5.17-2a4.74,4.74,0,0,1,2.24,2.74,9,9,0,0,1,.88,5.16,12.52,12.52,0,0,1-1.17,3.32c-.78,1.46-1.37,2.24-1.95,2.24a2.59,2.59,0,0,1-1.37-1.26,10.2,10.2,0,0,1-1.07-2.05.59.59,0,0,1,.1-.59,3,3,0,0,1,.58-.48,1.81,1.81,0,0,0,.68-.59,2,2,0,0,0,.59-1,4.37,4.37,0,0,0-.29-4.38c-.49-.69-1-.79-1.56-.39-.39.29-1.27,1-2.64,2s-2.34,1.75-2.92,2.24a38.67,38.67,0,0,1-3.22,2.15,4.09,4.09,0,0,1,2.63.68,7.78,7.78,0,0,1,2.34,3.9q.44,1.75.29,10.83c-.09,6.53.59,10.14,2.15,10.82,1,.39,2.34-.09,3.9-1.26a24.33,24.33,0,0,0,4.2-5.56A32.52,32.52,0,0,1,186.86,109.5Zm-8.78-45.35c-4.2,4.29-7.9,13.46-11.32,27.5,9.66-14.72,14-23.7,13.07-26.92a1.47,1.47,0,0,0-.68-1A1.07,1.07,0,0,0,178.08,64.15Z"/></g></g></g></svg>