<svg width="33" height="30" viewBox="0 0 33 30" fill="none" xmlns="http://www.w3.org/2000/svg">
<path d="M24.178 29.0461H8.36583C7.31782 29.0447 6.31312 28.6288 5.57207 27.8895C4.83102 27.1503 4.41411 26.148 4.41279 25.1025V11.671L2.55195 13.0209C2.32745 13.1851 2.05632 13.2735 1.77799 13.2733C1.49943 13.2736 1.22793 13.1859 1.00246 13.0227C0.776991 12.8595 0.60914 12.6292 0.522993 12.3649C0.436847 12.1007 0.436834 11.816 0.522956 11.5517C0.609078 11.2874 0.776908 11.0571 1.00236 10.8939L13.9417 1.50399C14.6175 1.01395 15.4315 0.75 16.2669 0.75C17.1023 0.75 17.9163 1.01395 18.5921 1.50399L31.5398 10.8939C31.6799 10.9953 31.7986 11.1233 31.8891 11.2705C31.9796 11.4177 32.0401 11.5813 32.0672 11.7519C32.0943 11.9224 32.0873 12.0967 32.0468 12.2646C32.0063 12.4325 31.933 12.5908 31.831 12.7304C31.7079 12.8974 31.5473 13.0334 31.362 13.1274C31.1767 13.2214 30.972 13.2708 30.7641 13.2717C30.4858 13.2722 30.2145 13.1837 29.9902 13.0193L28.1293 11.6693V25.0991C28.1289 26.1449 27.7126 27.1478 26.9718 27.8878C26.231 28.6277 25.2263 29.0443 24.178 29.0461ZM14.9537 14.5868H17.5885C18.6363 14.5876 19.641 15.0032 20.3821 15.7422C21.1232 16.4812 21.5402 17.4833 21.5415 18.5287V26.4159H24.178C24.5274 26.4154 24.8625 26.2767 25.1096 26.0302C25.3567 25.7837 25.4958 25.4494 25.4962 25.1008V9.7598L17.0475 3.62772C16.8221 3.46436 16.5506 3.37638 16.2719 3.37638C15.9932 3.37638 15.7217 3.46436 15.4963 3.62772L7.04759 9.7598V25.1008C7.04803 25.4494 7.18706 25.7837 7.43418 26.0302C7.6813 26.2767 8.01634 26.4154 8.36583 26.4159H11.0006V18.5287C11.002 17.4833 11.4189 16.4812 12.16 15.7422C12.9011 15.0032 13.9058 14.5876 14.9537 14.5868ZM14.9537 17.2153C14.6043 17.2153 14.2693 17.3536 14.0221 17.5999C13.775 17.8461 13.6359 18.1802 13.6354 18.5287V26.4159H18.9067V18.5287C18.9063 18.1802 18.7672 17.8461 18.52 17.5999C18.2728 17.3536 17.9378 17.2153 17.5885 17.2153H14.9537Z" fill="#1A6B70"/>
</svg>
