<svg xmlns="http://www.w3.org/2000/svg" viewBox="0 0 122.82 204.48"><g id="Слой_2" data-name="Слой 2"><g id="Capa_1" data-name="Capa 1"><path d="M121.28,38.31a6.11,6.11,0,0,0,.46-.67l.1-.16c.15-.28.29-.56.42-.86l0-.1a7,7,0,0,0,.27-.81,1.94,1.94,0,0,1,0-.2,8.52,8.52,0,0,0,.16-.88v-.06a6.84,6.84,0,0,0,0-.79V7.5a7.5,7.5,0,0,0-7.5-7.5H7.5A7.5,7.5,0,0,0,0,7.5V33.78c0,.27,0,.53,0,.8a.43.43,0,0,1,0,.05,6.49,6.49,0,0,0,.16.88,1.6,1.6,0,0,0,.05.21,7.46,7.46,0,0,0,.26.8.3.3,0,0,1,0,.1,6.84,6.84,0,0,0,.42.86l.1.16a7.83,7.83,0,0,0,.45.67l.08.11,50.25,63.82L1.61,166.06a1,1,0,0,1-.08.11c-.16.22-.31.44-.45.67,0,.06-.07.11-.1.16a7.58,7.58,0,0,0-.42.86.49.49,0,0,1,0,.11,6.8,6.8,0,0,0-.26.8,1.46,1.46,0,0,0-.05.2,6.49,6.49,0,0,0-.16.88s0,0,0,.06a6.85,6.85,0,0,0,0,.79V197a7.5,7.5,0,0,0,7.5,7.5H115.32a7.5,7.5,0,0,0,7.5-7.5V170.7a6.84,6.84,0,0,0,0-.79v-.06a8.52,8.52,0,0,0-.16-.88,1.46,1.46,0,0,1,0-.2c-.08-.28-.16-.54-.26-.8a.49.49,0,0,1,0-.11,6.71,6.71,0,0,0-.42-.85l-.1-.17a7.25,7.25,0,0,0-.46-.67l-.07-.11L71,102.24l50.25-63.82ZM107.82,15V26.28H15V15ZM15,189.48V178.2h92.82v11.28ZM99.87,163.2H23l38.46-48.84ZM61.41,90.12,23,41.28H99.87Z"/></g></g></svg>