<svg xmlns="http://www.w3.org/2000/svg" viewBox="0 0 404.73 197.08"><defs><style>.cls-1{fill:#c7f2ed;}.cls-2{fill:#1e1e1e;}</style></defs><g id="Слой_2" data-name="Слой 2"><g id="Слой_1-2" data-name="Слой 1"><path class="cls-1" d="M172.07,155.45c-4.7-11.52-11.87-21.16-20.28-29.91-14.68-15.29-31.95-26.9-51.15-35.76-2.47-1.14-5.09-2.43-6.89-4.36a6.52,6.52,0,0,1-1.19-5.66,6.36,6.36,0,0,1,4.69-3.29,30.64,30.64,0,0,1,9.67,1.31c44.77,12.92,85.26,33.71,119.77,65.42a12,12,0,0,0,1.6.83c-.94-2-1.51-3.25-2.16-4.49-20.57-39.18-52.46-65.92-92.36-83.76-6.47-2.9-13.19-5.24-19.84-7.74-5.71-2.15-8.14-4.91-7.11-8.37S111.25,35,116.88,36c49.27,8.6,93.66,28.42,133.66,58.28A17.48,17.48,0,0,0,256,97.36c-.68-1.24-1.33-2.5-2.07-3.71-20.84-34-50.59-56.56-88.44-68.66-4-1.28-8.08-2.34-12.09-3.62-4.69-1.5-6.61-3.93-5.85-7.1.69-2.88,3.54-4.25,8.15-3.65a270.63,270.63,0,0,1,87.48,26.84c5.59,2.81,11.07,5.86,17.33,8.15-2.8-3.66-5.4-7.52-8.46-11-10.87-12.26-24.63-19.95-40.12-24.8-1.25-.4-2.53-.72-3.77-1.16-2.6-.92-5.19-2.17-4.45-5.5s3.66-3.42,6.36-3a109,109,0,0,1,11.24,2.07c30,7.64,53.69,23.72,68,51.9a33.65,33.65,0,0,1,3.35,10.44c1.1,8-4.67,12.4-12.09,9.11-5.51-2.44-10.7-5.63-16-8.48a20.36,20.36,0,0,0-6.38-2.47c.85,1,1.7,2.07,2.56,3.1,12.61,15.16,23.46,31.45,30.95,49.75a37.12,37.12,0,0,1,2.84,13.72c0,8.39-6.46,12.55-14.4,9.64a36.58,36.58,0,0,1-8.83-5.09c-9.31-6.88-18.48-14-27.71-21a10.59,10.59,0,0,0-4.4-2.13c.69,1.16,1.36,2.34,2.07,3.48,9.17,14.65,17.79,29.61,22.62,46.3a51.89,51.89,0,0,1,2.09,17.79c-.63,8.57-8,12.74-16.07,9.52A39.43,39.43,0,0,1,238.92,181c-14.2-12.34-28.18-24.95-42.27-37.44a14.91,14.91,0,0,0-5.74-3.37c1.2,2.12,2.45,4.22,3.61,6.37,5.85,10.77,11.4,21.66,13.94,33.79a9.61,9.61,0,0,1,.25,1.16c.54,5.12.62,10.28-4.09,13.62s-9.87,1.93-14.43-.89a69.16,69.16,0,0,1-8.8-6.66c-14.21-12.37-28.62-24.47-45.34-33.44a38.72,38.72,0,0,0-7.54-3.37,5.55,5.55,0,0,0-4.59.87c-.71.66-.46,3.08.17,4.29a35.31,35.31,0,0,0,5,7.5c5.4,5.93,11.06,11.63,16.63,17.41.82.85,1.77,1.59,2.55,2.47,1.67,1.85,3.29,4.33,1.12,6.19-1.33,1.14-4.78,1.48-6.26.55-17-10.71-31.79-23.84-41.42-41.88a28.44,28.44,0,0,1-3-9.72c-.8-6.39,2.71-10.89,9.22-11.32a42,42,0,0,1,13.59,1.34c17.25,4.76,32.26,14,46.67,24.29C169.54,153.62,170.8,154.54,172.07,155.45Z"/><path class="cls-2" d="M116.44,158.13c-1.67,2.92-6.28,4.87-8.84,4.87-5.51,0-25.37-3.48-21.27-38.52S102,69.15,95.81,66.09c-2.56-1.25-9,2.92-16,9.87a167.34,167.34,0,0,1-3.46,24.33C72,122.4,62,147,53,147.15s-13.07-11-2-37.13c3.2-7.64,9.86-18.76,17.42-28.36,1.29-19-.51-35.17-7.94-35.45-6.28-.28-13.46,6-20.63,14.87a323.88,323.88,0,0,1-1.54,34.35C35.71,122.82,22,154.66,9.18,152.71S-1.58,127.4,6.49,111.55C9.31,106,18,85.83,29.3,68.73c.39-3.89.64-7.79.9-11.4.64-10.71,2.69-16.27-1.8-16.27C20,41.06,10,48.15,8.67,49.13s-5.13,1.39-1.8-1.25c2.18-1.53,11.92-7.37,17.18-8.9s14.73-3.06,15.37,8.34c.13,2.36.26,5,.26,7.65,7.43-8.21,15.51-13.63,23.19-12.38,12.69,2.09,16.54,13.91,16.92,26.7,7-6.26,14.1-9.46,19.61-6.68,14.86,7.65,3.46,43-.13,61.46s1,33.37,7.94,33.64a7.36,7.36,0,0,0,6.67-3.19C114.9,153.13,119,153.54,116.44,158.13ZM28.53,77.21c-9.1,14.6-16.66,30-19.73,36C2.26,126,.08,147.56,9.05,149.37S25.46,105,26.48,96.4C26.87,93.34,27.76,85.83,28.53,77.21ZM67.62,89.59C62,96.82,56.85,104.74,53.78,112c-9,21-6.28,30.73-1.93,30.73C57.62,142.7,64.93,115.17,67.62,89.59Z"/><path class="cls-2" d="M115.41,143c-1.41-4.87-1.28-13.77-.64-18.36,1.53-7.78,3.46-16.13,10.5-23.91a15.14,15.14,0,0,1,9.36-5,12.08,12.08,0,0,1,3.84.14,6.33,6.33,0,0,1,3.85,3.34,6.54,6.54,0,0,0,2.18,2.5,5.63,5.63,0,0,1,1.54,1.95,13.6,13.6,0,0,1,1.53,6.81c0,3.48-.77,7.09-.51,7.37,3.84-.42,6.66-2.5,9.87-5.42,1.28-1.11,1.79-2,2.43-2.5a1,1,0,0,1,1.67,0c.51.13.26.55.26,1s-.26,1-.39,1.25c-5.51,6.67-11.28,9.45-15,10.29-1.41.83-3.72,8.06-4.62,10-3.71,8.06-6.66,15.57-11.4,17.94C124.12,153.4,117.33,149.51,115.41,143Zm19.09-2.78A105.9,105.9,0,0,0,141.29,125c.39-1,.77-3.06-.25-3.48a10.91,10.91,0,0,1-6.28-9c-.39-3.62.25-8.62,4.48-11,0,0-.77-3.06-2.56-2.78-5.25.84-9.36,6.54-11.53,18.22A109.65,109.65,0,0,0,124,138.11c.13,1.95,1.67,8.76,4.23,8.34S133.22,142.7,134.5,140.2Zm10.25-29.34a17,17,0,0,0-.38-3.89c-.26-1.81-1.67-3.06-3-2.78a3.28,3.28,0,0,0-2.43,2.5c-.64,4.17-.13,5.56,1.41,8.06.51.84,2.17,2.37,3.2,2.23C144.37,116.84,144.75,111.69,144.75,110.86Z"/><path class="cls-2" d="M230.87,74.43a18.24,18.24,0,0,1-7.05.42,34.37,34.37,0,0,1-8.2-2.23,181.29,181.29,0,0,1-3.21,22.25c-4,19-15.89,54.78-31.27,53.95-13.19-.7-15.37-19-14.35-38.8.64-12.37,1.92-34.62,4.1-51.3.9-6.95,1.8-18.07-2.69-18.07-8.46,0-18.45,7.09-19.73,8.06s-5.13,1.39-1.8-1.25c2.18-1.53,11.92-7.37,17.17-8.9S179,36.75,180,48.29c-.26,17.1-1.28,48.25-1.79,62.57-.9,24-1,33.51,3.46,34.06,9.74,1.25,20.76-21.27,28.19-51a130.37,130.37,0,0,0,3.59-22.25,24.64,24.64,0,0,1-12.95-14.6c-5.38-15.71,1-19.6,4.36-20.16,6.41-1,9,3.34,9.61,7a103.7,103.7,0,0,1,1.41,23.22,13.69,13.69,0,0,0,8.72,4.59,24.54,24.54,0,0,0,7.43-.14C232.79,71.51,233.94,73.74,230.87,74.43Zm-17.18-9.87c.13-10.15-1-17.1-1.79-19.33-1.79-5.7-9-3-4.1,8.48A57,57,0,0,0,213.69,64.56Z"/><path class="cls-2" d="M218.17,135.33c.52-3.06,1.54-9.18,2.18-12.24,1.8-8.34,3.72-19,4.74-24,.26-.69,1-2.5,1.67-2.78,3.08-1.53,6.15.28,6.15,3.89,0,5.7-1.66,14.88-2.69,21-1.28,7.51-2.95,17.93-3.07,20-.26,4.17,2.43,5.14,3.71,5.14,2.44,0,4.74-2.08,7.95-6.39,2.17-2.92,7.56-13.77,10.12-21,.51-1.39,1.28-1.39,1.66-1.25.77.28.77,1.25.52,2.09-.52,1.53-1,2.5-1.67,4.31-3.84,10.7-10.25,25.44-19.6,27.25S216.12,147.43,218.17,135.33Zm10-47.18a4.32,4.32,0,0,1-.9-4.72,5.48,5.48,0,0,1,3.08-2.92,6.09,6.09,0,0,1,4.48.14A4.76,4.76,0,0,1,237,84.82a5.36,5.36,0,0,1-2.3,4A5.64,5.64,0,0,1,228.17,88.15Z"/><path class="cls-2" d="M274.81,150.76c-1.92-2.5-2.94-6.25-2.94-15.15,0-2.92-1.54-6.82-4.11-5.56l-2.18,1.11a1.36,1.36,0,0,1-1.79-1.11c-.38-1.81,2.31-3.62,3.72-4,3.07-.69,5.89-4.72,6.79-7.09,2.05-4.31,2.82-11.54.38-14.18-2.43-2.08-6.28,5.7-10.63,14a52.37,52.37,0,0,0-4.87,13.91c-1.54,7.37-2.69,12.09-4,15.15-1.67,4.31-3,4.17-6.16,4.17s-2.05-6.11-1.92-8.48c.77-12.93,1.28-23.22,4.87-42.4,3.21-16.83,6.66-30.31,9.61-37.4,2.31-5.84,4.62-11,6.54-13.63,2.31-3.2,5.89-6,9.48-6,3.85,0,6.41,3.2,5.77,8.34a120.22,120.22,0,0,1-10,34.21c-3.46,8.06-5.38,12-10.38,21.55-2.18,4.17-3.2,10.29-2.56,10.56s1.28-1.39,1.67-2.08c2.56-6,8.33-15,10.5-16.69,4.62-4,11,1.39,11,8.48a16.17,16.17,0,0,1-3.33,10.71c-1.92,2.64-4.74,6.12-5.12,6.81a1.6,1.6,0,0,0-.26,1.67c1.54,2.78,3.2,4.87,3.72,8.76.64,6.54,1.53,11.82,4.61,10.15,6.28-3.75,13.2-22.24,15.38-30.45a6.15,6.15,0,0,1,1.54-3.06c.25-.14.38-.14.76,0a1,1,0,0,1,.9,1.12,19.81,19.81,0,0,1-1.15,4.17c-.39,1.11-5.38,16.26-9.61,23.22-3.34,5.56-7.31,10.28-11.15,11.26A5.39,5.39,0,0,1,274.81,150.76Zm-8.46-54.5C272.89,81.52,273.66,80,276.48,71c2.31-7.51,5.76-20.44,4.1-22.39-1.92-2.22-4.36-1.11-5.9.28-2.94,2.64-5.51,9.45-6.53,13.62-4.87,18.91-8.84,38-6.15,39.35C262.89,103.35,265.46,98.21,266.35,96.26Z"/><path class="cls-2" d="M296,143.53c.77-12.93,1.28-23.22,4.87-42.4,3.21-16.83,6.67-30.31,9.61-37.4,2.31-5.84,4.62-11,6.54-13.63,2.31-3.2,5.89-6,9.48-6,3.85,0,6.41,3.2,5.77,8.34a120.22,120.22,0,0,1-10,34.21c-3.46,8.06-5.38,12-10.38,21.55-2.18,4.17-3.2,10.29-2.56,10.56s1.28-1.39,1.67-2.08c2.56-6,8.33-15,10.5-16.69,4.62-4,11,1.39,11,8.48a16.17,16.17,0,0,1-3.33,10.71c-1.92,2.64-4.74,6.12-5.12,6.81a1.6,1.6,0,0,0-.26,1.67c1.54,2.78,3.2,4.87,3.72,8.76.38,4.17.89,7.79,2,9.46,3.46,4.86,18.71-1.39,28.7-6.54s23.45-16.68,31.14-17.38c5.9-.55,10.51.28,13.33,4.73a13.72,13.72,0,0,1,1.54,3.06,6.67,6.67,0,0,1-.39,5.84,3,3,0,0,1-5.51-1c-.64-2.08-.12-4.17-.38-6.11-.39-2.51-4.1-4.31-8.33-3.48-6.28,1.25-18.2,13.77-40.75,24-5.64,2.65-19.22,6.82-25.25,1.67-2.94-2.5-2.94-6.25-2.94-15.15,0-2.92-1.54-6.82-4.11-5.56l-2.17,1.11a1.36,1.36,0,0,1-1.8-1.11c-.38-1.81,2.31-3.62,3.72-4,3.07-.69,5.89-4.72,6.79-7.09,2.05-4.31,2.82-11.54.38-14.18-2.43-2.08-6.28,5.7-10.63,14A52.37,52.37,0,0,0,308,132.69c-1.54,7.37-2.69,12.09-4,15.15-1.67,4.31-2.95,4.17-6.16,4.17S295.82,145.9,296,143.53Zm19.23-47.27C321.71,81.52,322.48,80,325.3,71c2.31-7.51,5.76-20.44,4.1-22.39-1.92-2.22-4.36-1.11-5.9.28C320.56,51.49,318,58.3,317,62.47c-4.87,18.91-8.84,38-6.15,39.35C311.71,103.35,314.28,98.21,315.18,96.26Z"/><path class="cls-2" d="M256.59,165.23a5,5,0,0,1-1.85,2.19,4.91,4.91,0,0,1-2.74.8,5.31,5.31,0,0,1-2.58-.64,4.88,4.88,0,0,1-1.89-1.77,4.75,4.75,0,0,1-.7-2.55,4.68,4.68,0,0,1,.7-2.49,5.08,5.08,0,0,1,1.89-1.79,5.18,5.18,0,0,1,4.46-.27,5.09,5.09,0,0,1,1.66,1.07,4.53,4.53,0,0,1,1.07,1.63h-1.43a3.63,3.63,0,0,0-.83-1,3.74,3.74,0,0,0-1.13-.65,3.63,3.63,0,0,0-1.25-.23,4,4,0,0,0-1.92.48,3.69,3.69,0,0,0-1.42,1.32,3.48,3.48,0,0,0-.52,1.88,3.66,3.66,0,0,0,.5,1.89,3.6,3.6,0,0,0,1.35,1.36,4,4,0,0,0,3.78.06,4.35,4.35,0,0,0,1.44-1.32Z"/><path class="cls-2" d="M267.88,163.21a4.93,4.93,0,0,1-.66,2.48,5,5,0,0,1-1.79,1.85,4.7,4.7,0,0,1-2.46.68,4.82,4.82,0,0,1-2.45-.66,4.89,4.89,0,0,1-1.83-1.78,4.69,4.69,0,0,1-.68-2.45,5,5,0,0,1,.66-2.5,5,5,0,0,1,4.3-2.5,4.56,4.56,0,0,1,1.86.39,4.87,4.87,0,0,1,1.59,1.06,5.27,5.27,0,0,1,1.07,1.57A4.6,4.6,0,0,1,267.88,163.21Zm-8.59.12a3.65,3.65,0,0,0,1.85,3.17A3.54,3.54,0,0,0,263,167a3.52,3.52,0,0,0,3.16-1.9,3.83,3.83,0,0,0,.47-1.88,3.47,3.47,0,0,0-1.1-2.61,3.82,3.82,0,0,0-1.18-.77,3.46,3.46,0,0,0-1.35-.27,3.54,3.54,0,0,0-1.86.51,3.7,3.7,0,0,0-1.34,1.38A3.84,3.84,0,0,0,259.29,163.33Z"/><path class="cls-2" d="M269.69,158.54h1.21v1.23a2.33,2.33,0,0,1,1-1.08,3.15,3.15,0,0,1,1.51-.36,3.79,3.79,0,0,1,3.06,1.44l.12.17c.07.11.1.17.12.19l.08-.17a1.18,1.18,0,0,0,.11-.19,3.12,3.12,0,0,1,1.31-1.05,3.89,3.89,0,0,1,1.68-.39,4.16,4.16,0,0,1,2.93,1.44,2.65,2.65,0,0,1,.71,1.2,6.38,6.38,0,0,1,.18,1.63V168h-1.28v-5.26a3.61,3.61,0,0,0-.47-2,2.52,2.52,0,0,0-2.14-1.12,2.6,2.6,0,0,0-1.18.29,2.46,2.46,0,0,0-.91.78,2.18,2.18,0,0,0-.33.88,10.05,10.05,0,0,0-.07,1.22V168h-1.28v-5.4a5,5,0,0,0-.08-1,2.29,2.29,0,0,0-.36-.85,2.74,2.74,0,0,0-.93-.83,2.44,2.44,0,0,0-1.2-.31,2.77,2.77,0,0,0-1.17.26,2.24,2.24,0,0,0-1.28,1.62,7.29,7.29,0,0,0-.08,1.15V168h-1.28Z"/><path class="cls-2" d="M287.11,158.54v1.63a3.22,3.22,0,0,1,1-1,4.63,4.63,0,0,1,1.35-.63,5,5,0,0,1,5.31,1.63,2.7,2.7,0,0,1,.55.75,4.75,4.75,0,0,1,.42,1.1,5.43,5.43,0,0,1,.15,1.29,4.68,4.68,0,0,1-.69,2.5,5,5,0,0,1-1.88,1.77,5.35,5.35,0,0,1-2.54.64,4.64,4.64,0,0,1-2.12-.52,3.2,3.2,0,0,1-1.46-1.47v5.08H285.9V158.54Zm7.49,4.75a3.71,3.71,0,0,0-3.72-3.73A4,4,0,0,0,289,160a3.62,3.62,0,0,0-1.38,1.31,3.48,3.48,0,0,0-.51,1.85,3.69,3.69,0,0,0,3.7,3.8,3.92,3.92,0,0,0,1.91-.48,3.63,3.63,0,0,0,1.89-3.22Z"/><path class="cls-2" d="M307.32,168h-1.23v-1.78a3.54,3.54,0,0,1-.93,1.1,3.84,3.84,0,0,1-1.28.68,4.84,4.84,0,0,1-1.46.23,5.22,5.22,0,0,1-2.19-.5,5.85,5.85,0,0,1-2-1.51,3.46,3.46,0,0,1-.63-1.19,5.37,5.37,0,0,1-.31-1.81,4.65,4.65,0,0,1,.35-1.73,3.1,3.1,0,0,1,.64-1.14,5.51,5.51,0,0,1,4.08-2,4.8,4.8,0,0,1,2.18.52,3.42,3.42,0,0,1,1.52,1.49v-1.8h1.23Zm-8.72-4.68a3.49,3.49,0,0,0,.53,1.86,3.86,3.86,0,0,0,1.42,1.33,3.73,3.73,0,0,0,1.87.49,3.5,3.5,0,0,0,1.81-.5,3.72,3.72,0,0,0,1.35-1.35,3.42,3.42,0,0,0,.51-1.81,3.75,3.75,0,0,0-.49-1.89,3.59,3.59,0,0,0-3.21-1.88,3.76,3.76,0,0,0-1.89.5,3.7,3.7,0,0,0-1.38,1.37A3.53,3.53,0,0,0,298.6,163.31Z"/><path class="cls-2" d="M309.49,158.54h1.21v1.37a3.46,3.46,0,0,1,2.94-1.58,4.37,4.37,0,0,1,1.84.41,4.14,4.14,0,0,1,1.51,1.17,3.48,3.48,0,0,1,.69,1.37,7.39,7.39,0,0,1,.18,1.74v5h-1.28v-5a6.64,6.64,0,0,0-.11-1.26,2.6,2.6,0,0,0-.44-1,2.84,2.84,0,0,0-1-.9,3.25,3.25,0,0,0-1.39-.31,2.89,2.89,0,0,0-1.3.31,2.74,2.74,0,0,0-1,.85,2,2,0,0,0-.4.93,9.09,9.09,0,0,0-.1,1.37v5h-1.28Z"/><path class="cls-2" d="M328.06,158.54l-5.47,12.77h-1.34l1.48-3.61-3.63-9.16h1.37l3,7.54,3.2-7.54Z"/></g></g></svg>