<svg xmlns="http://www.w3.org/2000/svg" xmlns:xlink="http://www.w3.org/1999/xlink" viewBox="0 0 177.48 98.11"><defs><style>.cls-1{fill:url(#Безымянный_градиент);}.cls-2{isolation:isolate;font-size:10px;font-family:MontserratAlternates-Regular, Montserrat Alternates;}.cls-3{letter-spacing:-0.01em;}.cls-4{fill:#3c4a6c;}</style><linearGradient id="Безымянный_градиент" x1="29.9" y1="-886.95" x2="154.4" y2="-779.45" gradientTransform="matrix(1, 0, 0, -1, 0, -780.06)" gradientUnits="userSpaceOnUse"><stop offset="0" stop-color="#86bfd1"/><stop offset="1" stop-color="#29ddd2" stop-opacity="0"/></linearGradient></defs><g id="Слой_2" data-name="Слой 2"><g id="Слой_1-2" data-name="Слой 1"><path class="cls-1" d="M99.41,0c5.9.8,7.4,1,11.8,2.6a41.25,41.25,0,0,1,14.3,8.3,37.65,37.65,0,0,1,8.4,9.8,38.81,38.81,0,0,1,4.4,8,12,12,0,0,1,1.1,4.8,3.75,3.75,0,0,1-5,3.5c-3.1-1-6.9-3.7-8.3-4.6a9.53,9.53,0,0,0-2.7-1.2l4.8,7.1,5.2,8.5c2,3.9,6,12,6,12.8a12.53,12.53,0,0,1,.6,4.6,6.61,6.61,0,0,1-1.4,3.9,4,4,0,0,1-2.6,1.6,3.8,3.8,0,0,1-3.1-.5,29.08,29.08,0,0,1-5.4-3.7s-5.3-4.3-8.7-7.1c-1.1-.9-1.7-1.5-2.8-2.4a3.3,3.3,0,0,0-1.6-.7l4.7,8.9a118.74,118.74,0,0,1,5.5,12.4,34.71,34.71,0,0,1,1.3,4.6,14.68,14.68,0,0,1,.5,2.9,20.55,20.55,0,0,1,.2,3.5c0,.9,0,.2-.1,2.3s-1.9,5.6-8.4,3.2a12.83,12.83,0,0,1-1.4-.9,50.71,50.71,0,0,1-4.4-3.7c-2.6-2.3-4-3.7-6.6-6.2-2.8-2.6-4.3-4.1-7-6.7-2.3-2.2-3.1-3.3-5.2-5.1a5.34,5.34,0,0,0-2.1-1.1s2,3.8,3.2,6.3a59.83,59.83,0,0,1,3.7,9.1c.7,2.3,1.5,5.9,1.5,5.9.5,3.1-.4,9.3-7.1,6.8a2.35,2.35,0,0,1-1-.5c-3.4-2.2-4.6-3.8-7.8-6.6-3.4-2.9-5.2-4.8-8.8-7.5s-5.7-4.6-9.9-6.6a19.09,19.09,0,0,0-3.6-1.6c-.6-.1-1.8.1-1.6,1.8a6,6,0,0,0,1.6,3.6c.8,1,1,1.3,2.1,2.7,1.7,2.1,2.8,3.1,4.5,5s3.3,3.3,4.1,4.7-1,3.9-4.4,1.5a59,59,0,0,1-4.7-3.7,49.61,49.61,0,0,1-5.3-4.9,54,54,0,0,1-4.3-5.2h0a37.73,37.73,0,0,1-3.4-5.4,19.45,19.45,0,0,1-1.3-3,6.49,6.49,0,0,1-.5-2.2c-.2-1,.5-6,4.5-6s5.9.4,6.3.6,4,1.4,6.4,2.5a48.44,48.44,0,0,1,7.1,3.8,49.61,49.61,0,0,1,6.6,4.7c1.2.9,3.1,2.5,3.1,2.5A50.64,50.64,0,0,0,78,69a34.84,34.84,0,0,0-2.8-3.9,35.94,35.94,0,0,0-3.2-3.5,55.08,55.08,0,0,0-4.3-4.1l-.1-.1a61.89,61.89,0,0,0-5-4.2,38.16,38.16,0,0,0-5.1-3.5c-2.1-1.2-5-2.9-8.1-4.8-1.4-.9-1.3-.9-3.1-2.2s-1.4-5.7,5.8-3.6a85.54,85.54,0,0,1,9.5,3.2c2.4.9,3.7,1.4,6.1,2.5,2.9,1.3,4.5,2.1,7.4,3.5,3.2,1.6,4.9,2.5,8,4.3a88,88,0,0,1,8.3,5.3,115.66,115.66,0,0,1,9.8,7.5c1.8,1.6,4.6,4.2,4.6,4.2l2.9,2.5a10.57,10.57,0,0,0-.5-1.9,63,63,0,0,0-5-8.7c-1.6-2.5-2.4-3.8-4.2-6.2a73.59,73.59,0,0,0-6.2-7.4,80.72,80.72,0,0,0-8.1-7.4,92.08,92.08,0,0,0-9-6.4,78.64,78.64,0,0,0-8.9-5.1,92.46,92.46,0,0,0-11.1-4.7,8.55,8.55,0,0,1-2.4-1.2,2.59,2.59,0,0,1,.2-4.7,18.81,18.81,0,0,1,7.1.5c2.4.6,3.8.9,6,1.5a75.91,75.91,0,0,1,7.4,2.3l8.5,3a73.69,73.69,0,0,1,9.2,4.2,118.81,118.81,0,0,1,11.1,6,115.91,115.91,0,0,1,11,7.4c3.2,2.5,5,3.9,8.3,6.4-.4-.9-1.4-2.6-2.3-4.3a68,68,0,0,0-4.8-7.1c-.9-1.2-1.4-1.8-2.3-2.9a58.24,58.24,0,0,0-4.6-5.3,53.68,53.68,0,0,0-5.7-5,63,63,0,0,0-7.6-5.1,61.64,61.64,0,0,0-7.1-4c-3.9-1.9-6-2.4-10.2-3.9-2-.8-2.9-.9-5.2-1.9a2,2,0,0,1-1.2-1.5,2.14,2.14,0,0,1,.3-1.9,2.48,2.48,0,0,1,2.1-1.1c1.9-.2,2.9.3,4.8.6a70,70,0,0,1,9.1,1.9,109.72,109.72,0,0,1,11.5,3.6c4.7,1.7,7.2,2.8,11.7,4.8,4.8,2.2,12,6.2,12,6.2l1.1.5s-.9-1.6-1.6-2.7a38.14,38.14,0,0,0-3.9-4.9,32.7,32.7,0,0,0-6.8-5.6,34.88,34.88,0,0,0-7.5-3.7c-2.1-.9-3.5-1-5.6-2A2.11,2.11,0,0,1,97.11,3a2.27,2.27,0,0,1,.3-1.8C98.21,0,98.81-.07,99.41,0Z"/><text class="cls-2" transform="translate(117.73 84.85)"><tspan class="cls-3">c</tspan><tspan x="5.54" y="0">ompany</tspan></text><path class="cls-4" d="M57.11,62.23a.81.81,0,0,1,.8.4q.3.3,0,1.2a79.75,79.75,0,0,1-8,19.1,3.17,3.17,0,0,1-1.9,1.7c-2,.7-3.7-.3-5.1-3.1a31.78,31.78,0,0,1-2.8-19.2,76.35,76.35,0,0,1,3-11c.6-1.7,1.7-4.5,3.3-8.5s2.8-6.8,3.3-8.3c.1-.1,0-.2-.1-.3a.19.19,0,0,0-.3,0A60.57,60.57,0,0,0,40,45.93a42,42,0,0,0-5.8,12.9,52.49,52.49,0,0,0-.8,8.5,1.27,1.27,0,0,1-.7,1.1,2.05,2.05,0,0,1-1.7.5,2.42,2.42,0,0,1-2.2-1.9,10.29,10.29,0,0,1-.4-4c.2-1.7.5-3.4.8-5.1s.5-3.2.7-4.6a34.22,34.22,0,0,1,1-4.5c.4-1.7.7-3,1-3.9s.6-2.3,1.1-4,.9-2.9,1.1-3.5.6-1.9,1.2-3.7,1-2.9,1.2-3.3.6-1.6,1.3-3.6,1.1-3.2,1.2-3.4c-3.7,2.6-7.9,7.7-12.4,15.1a153.78,153.78,0,0,0-12.7,26.6c-.3,2-.9,3.2-1.7,3.8s-1.6.7-2.3.2a7.18,7.18,0,0,1-2.5-2.4,5.86,5.86,0,0,1-.9-3.1c.3-2.9,2.3-9.6,6.1-20s6-17.7,6.7-21.9a11.23,11.23,0,0,0-.1-4.9,7.11,7.11,0,0,0-3-4.3,8.39,8.39,0,0,0-4.8-1.4,7.57,7.57,0,0,0-4.8,2.2,10.17,10.17,0,0,0-3,5.6,14.23,14.23,0,0,0,.8,4.9,12.16,12.16,0,0,0,2.3,5.1,1.5,1.5,0,0,0,1.6.4,3.07,3.07,0,0,0,1.5-1,4.57,4.57,0,0,0,.5-1.4,9.15,9.15,0,0,0,.1-1.6,6.15,6.15,0,0,1,.1-1.4c.1-.5.2-.8.5-1s.6-.2,1.1,0a3.76,3.76,0,0,1,2.4,2.1,9.49,9.49,0,0,1,1.1,3.5,10.2,10.2,0,0,1-3,7.8c-1.5,1.6-3,2.3-4.4,2-1.6-.3-3-1.9-4.3-4.8-2.8-6.1-4-11.2-3.9-15.3a16,16,0,0,1,2.5-7.7,9.57,9.57,0,0,1,5.7-4.3,12.71,12.71,0,0,1,8.9,1.6,15.42,15.42,0,0,1,3.6,2.7,19.12,19.12,0,0,1,2.7,3.5,29.62,29.62,0,0,1,2.2,4.7c.9,1.7,1.1,4,.8,6.8s-1.5,6.9-3.5,12.1c-.2.5-.7,1.8-1.5,4s-1.5,3.8-2,5c1.9-4,3.5-7.3,4.7-9.9s2.9-5.4,4.8-8.5a41.59,41.59,0,0,1,5.5-7.3,23.81,23.81,0,0,1,2.9-2.6,2.64,2.64,0,0,1,2.3-.4,5.51,5.51,0,0,1,2.6,2,8.57,8.57,0,0,1,1.8,3.9,7.26,7.26,0,0,1-.7,4,30.47,30.47,0,0,1-2.1,4c-.8,1.3-1.7,3-2.8,5a35.58,35.58,0,0,0-2.5,6.1c.9-1.2,1.9-2.3,2.9-3.5s2.3-2.5,3.7-4.1,2.5-2.7,3.1-3.4q3.45-3.9,6.3-3a4.27,4.27,0,0,1,2.6,2.5c.7,1.5.6,3.8-.4,6.8-.4,1.2-.9,2.8-1.5,4.6s-1.2,3.6-1.7,5.2a40.11,40.11,0,0,0-1.9,5.3q-.9,3-1.5,5.7c-.4,1.8-.7,3.6-1,5.5a33.54,33.54,0,0,0-.4,5.4,18,18,0,0,0,.6,4.8c.4,1.3.7,2,1.1,2,.7.1,1.8-1.3,3.2-4.2.1-.1.1-.1.1-.2,3.2-6.4,4.9-9.7,5.1-9.8A1.22,1.22,0,0,1,57.11,62.23Z"/><path class="cls-4" d="M76.91,49.93l-1,1.8c-.1.1-.1.1-.1.2a.1.1,0,0,1-.1.1,20.91,20.91,0,0,1-1.7,9.2c-1.5,3.8-3.6,6.5-6.4,8a9.07,9.07,0,0,1-5.2,1.1,8,8,0,0,1-4.9-1.9,7.89,7.89,0,0,1-2.4-4.9,15,15,0,0,1,.5-6,24.66,24.66,0,0,1,5.5-9.6l.5-.5a9.18,9.18,0,0,1,.1-3.7,6.89,6.89,0,0,1,2.6-4,5,5,0,0,1,4.7-.9c1.7.4,3.1,1.7,4.3,3.9a19.1,19.1,0,0,1,2.4,8.3A6,6,0,0,0,76.91,49.93Zm-14.5,18.3c2.8.9,5.4-.4,7.9-3.9,1.9-2.6,3-6.2,3.2-10.6a6.34,6.34,0,0,1-4.2.9,9.8,9.8,0,0,1-4.6-1.7,5.94,5.94,0,0,0-2.9,2.6,15.21,15.21,0,0,0-1.7,3.8,12.69,12.69,0,0,0-.6,4.6C59.81,66.33,60.71,67.73,62.41,68.23ZM66.31,43a4,4,0,0,0-1.4,2.2,3.87,3.87,0,0,0,.6,2.9,7.22,7.22,0,0,0,2.3,2.3,12.48,12.48,0,0,0,5.3,1.3h.4a22.18,22.18,0,0,0-.7-4.9,7.45,7.45,0,0,0-2-3.3C69.21,42.13,67.71,41.93,66.31,43Z"/><path class="cls-4" d="M111.61,27.73c.7.1,1.2.2,1.4.2h-1.4a90.29,90.29,0,0,1-8.5,19.4,72.25,72.25,0,0,1-5.6,9c-4.2,5.9-7.4,10.1-9.6,12.7a9.52,9.52,0,0,1-5.6,3.1,3.64,3.64,0,0,1-2.8-.1,5.77,5.77,0,0,1-1.7-2,8.43,8.43,0,0,1-1.2-5.9,10,10,0,0,1,1.7-4.3,30.34,30.34,0,0,0,2.7-5.9,28.4,28.4,0,0,0,1.8-6.2,44.45,44.45,0,0,0-.3-8.4,22.16,22.16,0,0,0-4.7-10.9,19.84,19.84,0,0,1-1.9-2.3c-.3-.5-.8-1.3-1.4-2.3a3.62,3.62,0,0,1-.7-2.3c.1-.6.2-1.4.3-2.6.9-2.5,1.7-3.9,2.3-4a2.49,2.49,0,0,1,2.4.9,30.24,30.24,0,0,1,6.9,8.1,30.29,30.29,0,0,1,3.8,8.2A57.15,57.15,0,0,1,91,46.23a75.33,75.33,0,0,1-2,13,61.32,61.32,0,0,0,10.7-14.4,73.57,73.57,0,0,0,7-17.5,19.41,19.41,0,0,1-4.7-1.6c-4.2-2.9-5.9-6.3-5.2-10.2a8.13,8.13,0,0,1,4.3-6.1c3-1.6,5.7-1.6,8.2,0a10.39,10.39,0,0,1,3.3,3.3,6.4,6.4,0,0,1,1.2,4A49.73,49.73,0,0,1,111.61,27.73Zm-7.6-3.6a11.44,11.44,0,0,0,3.3,2.3,54.63,54.63,0,0,0,1.7-11.1c0-1.3-.3-2.1-1-2.4q-1.5-.75-3.3.9a7.8,7.8,0,0,0-2.5,5.2A6.13,6.13,0,0,0,104,24.13Z"/><path class="cls-4" d="M121.21,58.83a.5.5,0,0,1,.8,0q.15.15,0,.6a39.31,39.31,0,0,1-4.8,7.8c-2.1,2.9-3.5,4.6-4.1,4.9a7.62,7.62,0,0,1-3.2.6,4.28,4.28,0,0,1-2.8-.7c-1.1-1-1.9-3.2-2.3-6.4a42,42,0,0,1,.6-11.9,40.66,40.66,0,0,1,4.6-13.2,1.63,1.63,0,0,1,2.5-.6,6.4,6.4,0,0,0,1.1.6,9.22,9.22,0,0,1,.8.5,2.17,2.17,0,0,1,.7.6l.6.6c.2.2.4.4.4.6v.5a34.25,34.25,0,0,0-3.4,8.8,63.75,63.75,0,0,0-2.2,10.9c-.3,3.3.1,5.6,1.2,6.7.4.3,1.6-.8,3.7-3.3S119.31,61.33,121.21,58.83Zm-4.5-20.3a4.7,4.7,0,0,1-4.1-2.1,1.55,1.55,0,0,1-.2-1.7,1.45,1.45,0,0,1,1.5-.8,4,4,0,0,1,2.3.5,4.53,4.53,0,0,1,1.8,1.5,1.55,1.55,0,0,1,.2,1.7A1.66,1.66,0,0,1,116.71,38.53Z"/><path class="cls-4" d="M150.21,57.33c.3-.1-.3,1.2-1.7,3.9a60.32,60.32,0,0,1-5.3,8.3c-2.1,2.8-3.8,4.5-5.2,4.8a6.82,6.82,0,0,1-1.9.2c-2.1-.4-3.4-2.3-3.9-5.8a142.66,142.66,0,0,1-.6-20.2,8.06,8.06,0,0,0-.6-3.6,2.61,2.61,0,0,0-2.4-1.5c-.8,3.7-1.5,7.5-2.2,11.4s-1.2,6.9-1.5,8.9l-.4,3.1a3,3,0,0,1-1.2,1.7,1.81,1.81,0,0,1-2,0,4.39,4.39,0,0,1-1.5-2.7,47.68,47.68,0,0,1,.9-7.7c.7-4.4,1.8-9.5,3.2-15.5s3-11.7,4.8-17.4a66.69,66.69,0,0,1,6-14c2.2-3.6,4.4-5.2,6.5-4.5a4.32,4.32,0,0,1,3.3,3.2,10,10,0,0,1-.3,5.4,41.16,41.16,0,0,1-2.3,5.8,28,28,0,0,1-2.7,4.7l-1.3,1.9c-.4.9-3.3,5-8.6,12.1-.2.8-.3,1.5-.5,2.2.1-.2.2-.3.2-.4a17.38,17.38,0,0,1,1.3-1.5c.5-.5,1.1-1,1.6-1.5s1.1-.9,1.6-1.4,1-.9,1.7-1.4,1.1-.9,1.6-1.3c2.1-2,3.9-2.6,5.3-2,.8.3,1.6,1.2,2.3,2.8a9.19,9.19,0,0,1,.9,5.3,12.67,12.67,0,0,1-1.2,3.4c-.8,1.5-1.4,2.3-2,2.3a2.7,2.7,0,0,1-1.4-1.3,10.76,10.76,0,0,1-1.1-2.1.61.61,0,0,1,.1-.6,3.17,3.17,0,0,1,.6-.5,1.87,1.87,0,0,0,.7-.6,2.07,2.07,0,0,0,.6-1,4.47,4.47,0,0,0-.3-4.5c-.5-.7-1-.8-1.6-.4-.4.3-1.3,1-2.7,2s-2.4,1.8-3,2.3a37.19,37.19,0,0,1-3.3,2.2,4.23,4.23,0,0,1,2.7.7,8,8,0,0,1,2.4,4q.45,1.8.3,11.1c-.1,6.7.6,10.4,2.2,11.1,1,.4,2.4-.1,4-1.3a24.56,24.56,0,0,0,4.3-5.7C148.61,59.13,149.81,57.53,150.21,57.33Zm-9-46.5c-4.3,4.4-8.1,13.8-11.6,28.2,9.9-15.1,14.3-24.3,13.4-27.6a1.53,1.53,0,0,0-.7-1A1.1,1.1,0,0,0,141.21,10.83Z"/><path class="cls-4" d="M177.41,57.33c.3-.1-.3,1.2-1.7,3.9a60.32,60.32,0,0,1-5.3,8.3c-2.1,2.8-3.8,4.5-5.2,4.8a6.82,6.82,0,0,1-1.9.2c-2.1-.4-3.4-2.3-3.9-5.8a142.66,142.66,0,0,1-.6-20.2,8.06,8.06,0,0,0-.6-3.6,2.61,2.61,0,0,0-2.4-1.5c-.8,3.7-1.5,7.5-2.2,11.4s-1.2,6.9-1.5,8.9l-.4,3.1a3,3,0,0,1-1.2,1.7,1.81,1.81,0,0,1-2,0,4.39,4.39,0,0,1-1.5-2.7,47.68,47.68,0,0,1,.9-7.7c.7-4.4,1.8-9.5,3.2-15.5s3-11.7,4.8-17.4a66.69,66.69,0,0,1,6-14c2.2-3.6,4.4-5.2,6.5-4.5a4.32,4.32,0,0,1,3.3,3.2,10,10,0,0,1-.3,5.4,41.16,41.16,0,0,1-2.3,5.8,28,28,0,0,1-2.7,4.7l-1.3,1.9c-.4.9-3.3,5-8.6,12.1-.2.8-.3,1.5-.5,2.2.1-.2.2-.3.2-.4a17.38,17.38,0,0,1,1.3-1.5c.5-.5,1.1-1,1.6-1.5s1.1-.9,1.6-1.4,1-.9,1.7-1.4,1.1-.9,1.6-1.3c2.1-2,3.9-2.6,5.3-2,.8.3,1.6,1.2,2.3,2.8a9.19,9.19,0,0,1,.9,5.3,12.67,12.67,0,0,1-1.2,3.4c-.8,1.5-1.4,2.3-2,2.3a2.7,2.7,0,0,1-1.4-1.3,10.76,10.76,0,0,1-1.1-2.1.61.61,0,0,1,.1-.6,3.17,3.17,0,0,1,.6-.5,1.87,1.87,0,0,0,.7-.6,2.07,2.07,0,0,0,.6-1,4.47,4.47,0,0,0-.3-4.5c-.5-.7-1-.8-1.6-.4-.4.3-1.3,1-2.7,2s-2.4,1.8-3,2.3a37.19,37.19,0,0,1-3.3,2.2,4.23,4.23,0,0,1,2.7.7,8,8,0,0,1,2.4,4q.45,1.8.3,11.1c-.1,6.7.6,10.4,2.2,11.1,1,.4,2.4-.1,4-1.3a24.56,24.56,0,0,0,4.3-5.7C175.81,59.13,177,57.53,177.41,57.33Zm-9-46.5c-4.3,4.4-8.1,13.8-11.6,28.2,9.9-15.1,14.3-24.3,13.4-27.6a1.53,1.53,0,0,0-.7-1A1.1,1.1,0,0,0,168.41,10.83Z"/></g></g></svg>