<svg width="104" height="89" viewBox="0 0 104 89" fill="none" xmlns="http://www.w3.org/2000/svg">
<path d="M60.6005 36.9656C60.1925 36.9629 59.8 37.1216 59.5086 37.4072C59.2172 37.6928 59.0506 38.0821 59.0452 38.49V49.8818C59.0506 50.2907 59.2179 50.6808 59.5104 50.9665C59.8029 51.2522 60.1968 51.4104 60.6056 51.4062H94.9201C95.329 51.4104 95.7228 51.2522 96.0153 50.9665C96.3078 50.6808 96.4751 50.2907 96.4805 49.8818V38.49C96.4751 38.0812 96.3078 37.6911 96.0153 37.4054C95.7228 37.1197 95.329 36.9615 94.9201 36.9656H60.6056H60.6005ZM81.6434 0.730248C86.3917 0.956848 89.8062 1.89415 91.9691 3.88205C94.1064 5.84935 95.2034 8.6973 95.4196 12.4671V23.2666C95.4088 24.1864 95.0333 25.0642 94.3757 25.7073C93.7182 26.3504 92.8322 26.7062 91.9125 26.6965C91.4567 26.702 91.0042 26.6176 90.581 26.4482C90.1578 26.2787 89.7721 26.0276 89.4459 25.7091C89.1198 25.3906 88.8596 25.011 88.6801 24.5919C88.5007 24.1728 88.4056 23.7225 88.4002 23.2666L88.4053 12.6628C88.2921 10.7058 87.8234 9.4904 87.1539 8.8724C86.505 8.275 84.5274 7.7394 81.4734 7.5849H14.1321C11.3665 7.6879 9.56915 8.2132 8.6988 8.95995C8.0293 9.5316 7.5246 11.1075 7.51945 13.8318L7.504 74.4473C7.7615 77.0944 8.34345 78.8609 9.0902 79.7416C9.6567 80.411 11.4129 81.0806 13.9982 81.4101H81.5456C84.7077 81.4719 86.5719 80.9982 87.2002 80.3647C87.8955 79.6591 88.4002 77.8052 88.4002 74.7718V64.2401C88.4002 62.35 89.971 60.8101 91.9125 60.8101C93.8489 60.8101 95.4196 62.35 95.4196 64.2401V74.7718C95.4196 79.4068 94.4721 82.8727 92.2524 85.1233C89.9658 87.4408 86.3299 88.3678 81.4734 88.2648L13.581 88.2494C8.96145 87.7138 5.65 86.4468 3.67755 84.1139C1.8905 82.0024 0.89655 78.9896 0.5 74.7769V13.8267C0.5103 9.3153 1.5918 5.92145 4.0741 3.79965C6.3504 1.84265 9.6361 0.889898 13.9982 0.725098H81.6434V0.730248ZM94.9201 30.1058C99.6581 30.1058 103.5 33.8602 103.5 38.49V49.8818C103.5 54.5117 99.6581 58.2661 94.9201 58.2661H60.6056C55.8676 58.2661 52.0258 54.5065 52.0258 49.8818V38.49C52.0258 33.8602 55.8676 30.1058 60.6056 30.1058H94.9201ZM69.1856 40.0969C66.8166 40.0969 64.8956 41.9508 64.8956 44.2323C64.8956 46.5189 66.8166 48.3678 69.1856 48.3678C71.5546 48.3678 73.4755 46.5137 73.4755 44.2323C73.4755 41.9457 71.5546 40.0917 69.1856 40.0917V40.0969Z" fill="#1A6B70"/>
</svg>
