<svg xmlns="http://www.w3.org/2000/svg" viewBox="0 0 511 455"><g id="Слой_2" data-name="Слой 2"><g id="Capa_1" data-name="Capa 1"><path d="M471.5,0H39.5A39.52,39.52,0,0,0,0,39.5v256A39.52,39.52,0,0,0,39.5,335h160a7.5,7.5,0,0,0,0-15H39.5A24.54,24.54,0,0,1,15,295.5V39.5A24.54,24.54,0,0,1,39.5,15h432A24.54,24.54,0,0,1,496,39.5v256a7.5,7.5,0,0,0,15,0V39.5A39.52,39.52,0,0,0,471.5,0Z"/><path d="M207.5,264H63.5a7.5,7.5,0,0,0,0,15h144a7.5,7.5,0,0,0,0-15Z"/><path d="M151,127.5v-32A23.47,23.47,0,0,0,127.5,72h-48A23.47,23.47,0,0,0,56,95.5v32A23.47,23.47,0,0,0,79.5,151h48A23.47,23.47,0,0,0,151,127.5Zm-80,0V119h8.5a7.5,7.5,0,0,0,0-15H71V95.5A8.49,8.49,0,0,1,79.5,87H96v49H79.5A8.49,8.49,0,0,1,71,127.5Zm56.5,8.5H111V87h16.5a8.49,8.49,0,0,1,8.5,8.5V104h-8.5a7.5,7.5,0,0,0,0,15H136v8.5A8.49,8.49,0,0,1,127.5,136Z"/><path d="M56,223.5a7.5,7.5,0,0,0,15,0v-16a7.5,7.5,0,0,0-15,0Z"/><path d="M80,207.5v16a7.5,7.5,0,0,0,15,0v-16a7.5,7.5,0,0,0-15,0Z"/><path d="M104,207.5v16a7.5,7.5,0,0,0,15,0v-16a7.5,7.5,0,0,0-15,0Z"/><path d="M128,207.5v16a7.5,7.5,0,0,0,15,0v-16a7.5,7.5,0,0,0-15,0Z"/><path d="M175,223.5v-16a7.5,7.5,0,0,0-15,0v16a7.5,7.5,0,0,0,15,0Z"/><path d="M199,223.5v-16a7.5,7.5,0,0,0-15,0v16a7.5,7.5,0,0,0,15,0Z"/><path d="M215.5,200a7.55,7.55,0,0,0-7.5,7.5v16a7.5,7.5,0,0,0,15,0v-16A7.55,7.55,0,0,0,215.5,200Z"/><path d="M247,223.5v-16a7.5,7.5,0,0,0-15,0v16a7.5,7.5,0,0,0,15,0Z"/><path d="M415.5,151a39.5,39.5,0,0,0,0-79h-48a39.5,39.5,0,0,0,0,79ZM343,111.5A24.54,24.54,0,0,1,367.5,87h48a24.5,24.5,0,0,1,0,49h-48A24.54,24.54,0,0,1,343,111.5Z"/><path d="M351.5,200A127.5,127.5,0,1,0,479,327.5,127.65,127.65,0,0,0,351.5,200Zm0,240A112.5,112.5,0,1,1,464,327.5,112.67,112.67,0,0,1,351.5,440Z"/><path d="M402.6,272.9c.1-.2.3-.4.4-.6l.1-.1c.1-.2.3-.5.4-.7v-.1a1.85,1.85,0,0,0,.2-.7v-.2a2,2,0,0,0,.1-.8h0V246.6a6.44,6.44,0,0,0-6.4-6.4h-92a6.44,6.44,0,0,0-6.4,6.4v23.1h0c0,.3.1.5.1.8v.2c.1.2.1.5.2.7v.1a1.61,1.61,0,0,0,.4.7l.1.1a2.09,2.09,0,0,0,.4.6.1.1,0,0,0,.1.1l42.9,54.5L300.5,382a.1.1,0,0,1-.1.1c-.1.2-.3.4-.4.6l-.1.1c-.1.2-.3.5-.4.7v.1a1.85,1.85,0,0,0-.2.7v.2a2,2,0,0,0-.1.8h0v23.1a6.44,6.44,0,0,0,6.4,6.4h92a6.44,6.44,0,0,0,6.4-6.4V385.3h0c0-.3-.1-.5-.1-.8v-.2c-.1-.2-.1-.5-.2-.7v-.1a1.61,1.61,0,0,0-.4-.7l-.1-.1a2.09,2.09,0,0,0-.4-.6.1.1,0,0,0-.1-.1l-42.9-54.5,42.8-54.6Zm-11.5-19.8v9.6H311.9v-9.6ZM311.9,401.9v-9.6h79.2v9.6Zm72.4-22.4H318.7l32.8-41.7Zm-32.8-62.3-32.8-41.7h65.6Z"/></g></g></svg>