<svg width="24" height="23" viewBox="0 0 24 23" fill="none" xmlns="http://www.w3.org/2000/svg">
<path fill-rule="evenodd" clip-rule="evenodd" d="M2.31959 10.5605C2.31959 6.00009 6.01651 2.30317 10.5769 2.30317C15.1373 2.30317 18.8342 6.00009 18.8342 10.5605C18.8342 15.1209 15.1373 18.8178 10.5769 18.8178C6.01651 18.8178 2.31959 15.1209 2.31959 10.5605ZM10.5769 0.316956C4.91955 0.316956 0.333374 4.90313 0.333374 10.5605C0.333374 16.2178 4.91955 20.804 10.5769 20.804C13.2293 20.804 15.6463 19.7958 17.4656 18.1418L21.9715 22.6477C22.3593 23.0356 22.9881 23.0356 23.3759 22.6477C23.7638 22.2599 23.7638 21.6311 23.3759 21.2433L18.801 16.6684C20.0697 14.9629 20.8204 12.8494 20.8204 10.5605C20.8204 4.90313 16.2342 0.316956 10.5769 0.316956Z" fill="#1A6B70"/>
</svg>
