<svg width="28" height="28" viewBox="0 0 28 28" fill="none" xmlns="http://www.w3.org/2000/svg">
<path d="M14.011 2.32629C16.6309 2.32629 18.7548 4.4502 18.7548 7.07017C18.7548 9.69013 16.6309 11.814 14.011 11.814C11.391 11.814 9.26709 9.69013 9.26709 7.07017C9.26709 4.4502 11.391 2.32629 14.011 2.32629Z" stroke="#1A6B70" stroke-width="2.5"/>
<path d="M21.0954 20.1272L19.8954 20.4772L21.0954 20.1272ZM6.92707 20.1272L5.72707 19.7772L6.92707 20.1272ZM7.66174 22.0726L8.12707 20.4772L5.72707 19.7772L5.26174 21.3726L7.66174 22.0726ZM19.8954 20.4772L20.3608 22.0726L22.7608 21.3726L22.2954 19.7772L19.8954 20.4772ZM19.6264 23.0518H8.39613V25.5518H19.6264V23.0518ZM20.3608 22.0726C20.5036 22.5622 20.1364 23.0518 19.6264 23.0518V25.5518C21.803 25.5518 23.3702 23.4622 22.7608 21.3726L20.3608 22.0726ZM14.0112 16.0641C16.7354 16.0641 19.1327 17.862 19.8954 20.4772L22.2954 19.7772C21.2216 16.0954 17.8465 13.5641 14.0112 13.5641V16.0641ZM8.12707 20.4772C8.88983 17.862 11.2871 16.0641 14.0112 16.0641V13.5641C10.176 13.5641 6.80094 16.0954 5.72707 19.7772L8.12707 20.4772ZM5.26174 21.3726C4.65227 23.4622 6.21947 25.5518 8.39613 25.5518V23.0518C7.88614 23.0518 7.51894 22.5622 7.66174 22.0726L5.26174 21.3726Z" fill="#1A6B70"/>
</svg>
