<svg width="84" height="73" viewBox="0 0 84 73" fill="none" xmlns="http://www.w3.org/2000/svg">
<path d="M26.55 42.9478V19.7934C26.5507 19.0919 26.7423 18.4039 27.1044 17.8032C27.4665 17.2024 27.9853 16.7116 28.6052 16.3834C29.2251 16.0551 29.9227 15.9019 30.6231 15.9402C31.3235 15.9784 32.0002 16.2066 32.5807 16.6004L51.1722 29.2179C51.5209 29.4534 51.8065 29.7707 52.0042 30.1422C52.2018 30.5136 52.3054 30.9278 52.3059 31.3486C52.3064 31.7693 52.2038 32.1838 52.0071 32.5557C51.8103 32.9277 51.5254 33.2457 51.1773 33.482L32.5858 46.1408C32.0053 46.5359 31.328 46.7653 30.6269 46.8042C29.9257 46.8432 29.2271 46.6903 28.6064 46.3619C27.9857 46.0335 27.4662 45.5421 27.1039 44.9405C26.7415 44.339 26.5501 43.65 26.55 42.9478ZM0.800049 13.325C0.800049 9.91029 2.15652 6.63548 4.57105 4.22095C6.98558 1.80642 10.2604 0.449951 13.675 0.449951H60.0251C63.4397 0.449951 66.7145 1.80642 69.1291 4.22095C71.5436 6.63548 72.9 9.91029 72.9 13.325V49.375C72.9 52.7896 71.5436 56.0644 69.1291 58.479C66.7145 60.8935 63.4397 62.25 60.0251 62.25H13.675C10.2604 62.25 6.98558 60.8935 4.57105 58.479C2.15652 56.0644 0.800049 52.7896 0.800049 49.375V13.325ZM13.675 5.59995C11.6263 5.59995 9.66137 6.41383 8.21265 7.86255C6.76393 9.31127 5.95005 11.2762 5.95005 13.325V49.375C5.95005 51.4237 6.76393 53.3886 8.21265 54.8374C9.66137 56.2861 11.6263 57.1 13.675 57.1H60.0251C62.0738 57.1 64.0387 56.2861 65.4874 54.8374C66.9362 53.3886 67.7501 51.4237 67.7501 49.375V13.325C67.7501 11.2762 66.9362 9.31127 65.4874 7.86255C64.0387 6.41383 62.0738 5.59995 60.0251 5.59995H13.675ZM13.675 67.4C16.0234 70.526 19.7623 72.5499 23.975 72.5499H62.6001C68.0635 72.5499 73.3032 70.3796 77.1664 66.5163C81.0297 62.6531 83.2001 57.4134 83.2001 51.95V23.625C83.2001 19.4123 81.1761 15.6734 78.05 13.325V51.95C78.05 56.0475 76.4223 59.9773 73.5248 62.8748C70.6274 65.7722 66.6976 67.4 62.6001 67.4H13.675Z" fill="#1A6B70"/>
</svg>
